HIERARCHY
ROOT hip
{
  OFFSET 0 0 0
  CHANNELS 6 Xposition Yposition Zposition Zrotation Yrotation Xrotation
  JOINT abdomen
  {
    OFFSET 0 20.6881 -0.73152
    CHANNELS 3 Zrotation Xrotation Yrotation
    JOINT chest
    {
      OFFSET 0 11.7043 -0.48768
      CHANNELS 3 Zrotation Xrotation Yrotation
      JOINT neck
      {
        OFFSET 0 22.1894 -2.19456
        CHANNELS 3 Zrotation Xrotation Yrotation
        JOINT head
        {
          OFFSET -0.24384 7.07133 1.2192
          CHANNELS 3 Zrotation Xrotation Yrotation
          JOINT leftEye
          {
            OFFSET 4.14528 8.04674 8.04672
            CHANNELS 3 Zrotation Xrotation Yrotation
            End Site
            {
              OFFSET 1 0 0
            }
          }
          JOINT rightEye
          {
            OFFSET -3.6576 8.04674 8.04672
            CHANNELS 3 Zrotation Xrotation Yrotation
            End Site
            {
              OFFSET 1 0 0
            }
          }
        }
      }
      JOINT rCollar
      {
        OFFSET -2.68224 19.2634 -4.8768
        CHANNELS 3 Zrotation Xrotation Yrotation
        JOINT rShldr
        {
          OFFSET -8.77824 -1.95073 1.46304
          CHANNELS 3 Zrotation Xrotation Yrotation
          JOINT rForeArm
          {
            OFFSET -28.1742 -1.7115 0.48768
            CHANNELS 3 Zrotation Xrotation Yrotation
            JOINT rHand
            {
              OFFSET -22.5879 0.773209 7.07136
              CHANNELS 3 Zrotation Xrotation Yrotation
              JOINT rThumb1
              {
                OFFSET -1.2192 -0.487915 3.41376
                CHANNELS 3 Zrotation Xrotation Yrotation
                JOINT rThumb2
                {
                  OFFSET -3.37035 -0.52449 3.41376
                  CHANNELS 3 Zrotation Xrotation Yrotation
                  End Site
                  {
                    OFFSET -1.78271 -1.18214 1.43049
                  }
                }
              }
              JOINT rIndex1
              {
                OFFSET -7.75947 0.938293 5.60832
                CHANNELS 3 Zrotation Xrotation Yrotation
                JOINT rIndex2
                {
                  OFFSET -2.54057 -0.884171 1.56538
                  CHANNELS 3 Zrotation Xrotation Yrotation
                  End Site
                  {
                    OFFSET -1.62519 -0.234802 1.16502
                  }
                }
              }
              JOINT rMid1
              {
                OFFSET -8.24714 1.18213 3.41376
                CHANNELS 3 Zrotation Xrotation Yrotation
                JOINT rMid2
                {
                  OFFSET -3.10165 -0.590103 1.0647
                  CHANNELS 3 Zrotation Xrotation Yrotation
                  End Site
                  {
                    OFFSET -2.48547 -0.328903 0.83742
                  }
                }
              }
              JOINT rRing1
              {
                OFFSET -8.82822 0.546677 1.51678
                CHANNELS 3 Zrotation Xrotation Yrotation
                JOINT rRing2
                {
                  OFFSET -2.60934 -0.819778 -0.0198488
                  CHANNELS 3 Zrotation Xrotation Yrotation
                  End Site
                  {
                    OFFSET -2.33842 -0.294052 0.168128
                  }
                }
              }
              JOINT rPinky1
              {
                OFFSET -8.27202 -0.0477905 -0.4584
                CHANNELS 3 Zrotation Xrotation Yrotation
                JOINT rPinky2
                {
                  OFFSET -1.82734 -0.647385 -0.700984
                  CHANNELS 3 Zrotation Xrotation Yrotation
                  End Site
                  {
                    OFFSET -1.69225 -0.51767 -0.607171
                  }
                }
              }
            }
          }
        }
      }
      JOINT lCollar
      {
        OFFSET 2.68224 19.2634 -4.8768
        CHANNELS 3 Zrotation Xrotation Yrotation
        JOINT lShldr
        {
          OFFSET 8.77824 -1.95073 1.46304
          CHANNELS 3 Zrotation Xrotation Yrotation
          JOINT lForeArm
          {
            OFFSET 28.1742 -1.7115 0.48768
            CHANNELS 3 Zrotation Xrotation Yrotation
            JOINT lHand
            {
              OFFSET 22.5879 0.773209 7.07136
              CHANNELS 3 Zrotation Xrotation Yrotation
              JOINT lThumb1
              {
                OFFSET 1.2192 -0.487915 3.41376
                CHANNELS 3 Zrotation Xrotation Yrotation
                JOINT lThumb2
                {
                  OFFSET 3.37035 -0.52449 3.41376
                  CHANNELS 3 Zrotation Xrotation Yrotation
                  End Site
                  {
                    OFFSET 1.78271 -1.18214 1.43049
                  }
                }
              }
              JOINT lIndex1
              {
                OFFSET 7.75947 0.938293 5.60832
                CHANNELS 3 Zrotation Xrotation Yrotation
                JOINT lIndex2
                {
                  OFFSET 2.54057 -0.884171 1.56538
                  CHANNELS 3 Zrotation Xrotation Yrotation
                  End Site
                  {
                    OFFSET 1.62519 -0.234802 1.16502
                  }
                }
              }
              JOINT lMid1
              {
                OFFSET 8.24714 1.18213 3.41376
                CHANNELS 3 Zrotation Xrotation Yrotation
                JOINT lMid2
                {
                  OFFSET 3.10165 -0.590103 1.0647
                  CHANNELS 3 Zrotation Xrotation Yrotation
                  End Site
                  {
                    OFFSET 2.48547 -0.328903 0.83742
                  }
                }
              }
              JOINT lRing1
              {
                OFFSET 8.82822 0.546677 1.51678
                CHANNELS 3 Zrotation Xrotation Yrotation
                JOINT lRing2
                {
                  OFFSET 2.60934 -0.819778 -0.0198488
                  CHANNELS 3 Zrotation Xrotation Yrotation
                  End Site
                  {
                    OFFSET 2.33842 -0.294052 0.168128
                  }
                }
              }
              JOINT lPinky1
              {
                OFFSET 8.27202 -0.0477905 -0.4584
                CHANNELS 3 Zrotation Xrotation Yrotation
                JOINT lPinky2
                {
                  OFFSET 1.82734 -0.647385 -0.700984
                  CHANNELS 3 Zrotation Xrotation Yrotation
                  End Site
                  {
                    OFFSET 1.69225 -0.51767 -0.607171
                  }
                }
              }
            }
          }
        }
      }
    }
  }
  JOINT rButtock
  {
    OFFSET -8.77824 4.35084 1.2192
    CHANNELS 3 Zrotation Xrotation Yrotation
    JOINT rThigh
    {
      OFFSET 0 -1.70687 -2.19456
      CHANNELS 3 Zrotation Xrotation Yrotation
      JOINT rShin
      {
        OFFSET 0 -36.8199 0.73152
        CHANNELS 3 Zrotation Xrotation Yrotation
        JOINT rFoot
        {
          OFFSET 0.73152 -45.1104 -5.12064
          CHANNELS 3 Zrotation Xrotation Yrotation
          End Site
          {
            OFFSET -1.1221 -3.69964 12.103
          }
        }
      }
    }
  }
  JOINT lButtock
  {
    OFFSET 8.77824 4.35084 1.2192
    CHANNELS 3 Zrotation Xrotation Yrotation
    JOINT lThigh
    {
      OFFSET 0 -1.70687 -2.19456
      CHANNELS 3 Zrotation Xrotation Yrotation
      JOINT lShin
      {
        OFFSET 0 -36.8199 0.73152
        CHANNELS 3 Zrotation Xrotation Yrotation
        JOINT lFoot
        {
          OFFSET -0.73152 -45.1104 -5.12064
          CHANNELS 3 Zrotation Xrotation Yrotation
          End Site
          {
            OFFSET 1.1221 -3.69964 12.103
          }
        }
      }
    }
  }
}
MOTION
Frames:	5
Frame Time:	0.00833333
42.0396 83.0696 127.802 0.0 0.0 0.0 -3.29163 -0.00200178 -0.0897127 -0.910497 0.010826 -0.157566 5.80814e-14 -7.95139e-16 3.97569e-16 1.73387e-13 3.18055e-15 9.93923e-16 -0.0 0.0 0.0 -0.0 0.0 0.0 2.83781e-14 3.3739e-16 2.98177e-16 6.05927e-13 6.98852e-15 5.36719e-15 1.03923e-11 -2.87184e-12 -1.90833e-14 1.18895e-10 4.3797e-12 7.82416e-13 2.80461e-10 3.26901e-12 1.63481e-12 4.84338e-10 5.6423e-12 2.80048e-12 2.80468e-10 3.27239e-12 1.62844e-12 7.73091 5.47488 0.417314 2.80462e-10 3.26901e-12 1.62844e-12 2.90554 0.965183 0.102902 2.80473e-10 3.26941e-12 1.62924e-12 10.2786 0.731801 0.0259123 2.80463e-10 3.26842e-12 1.63162e-12 2.22167 -0.733487 -0.20892 2.83769e-14 3.27684e-16 0.0 6.01846e-13 6.69656e-15 3.97569e-15 1.03908e-11 3.34654e-12 -4.13472e-14 1.1895e-10 -1.86144e-12 8.20583e-13 2.80567e-10 3.22321e-12 1.63799e-12 4.84521e-10 5.56279e-12 2.82513e-12 2.80558e-10 3.22866e-12 1.65071e-12 -7.73091 5.47488 -0.417314 2.80565e-10 3.22379e-12 1.63481e-12 -2.90554 0.965183 -0.102902 2.80553e-10 3.22399e-12 1.63878e-12 -10.2786 0.731801 -0.0259123 2.80565e-10 3.22111e-12 1.63162e-12 -2.22167 -0.733487 0.20892 -2.03217e-16 0.0 -3.88251e-19 -2.14043 -1.93291 0.0183657 -0.00780947 -2.07877 -0.0636503 -0.356238 4.00069 0.117323 2.03217e-16 0.0 3.88251e-19 -2.88068 -9.67719 0.338973 -0.0100211 11.9464 -0.261563 0.458472 -2.28006 -0.00595441
40.6637 79.0833 115.476 -179.718 -11.4626 -161.156 -0.300677 -5.80435 1.46443 -2.09188 1.40611 0.157068 4.62051 3.36347 4.32077 -5.06621 0.998775 7.75637 -0.0 0.0 0.0 -0.0 0.0 0.0 -5.40175e-15 2.47002e-14 -4.51536e-14 20.9134 5.0823 -0.935022 -4.09755 -1.83813 6.42544 0.00217622 -1.03504 -0.14538 2.4694e-10 1.57682e-10 -5.22248e-10 4.26588e-10 2.72194e-10 -9.03539e-10 2.46946e-10 1.57684e-10 -5.22257e-10 7.73091 5.47488 0.417314 2.46945e-10 1.57679e-10 -5.2225e-10 2.90554 0.965183 0.102902 2.46949e-10 1.57681e-10 -5.22252e-10 10.2786 0.731801 0.0259123 2.4694e-10 1.57681e-10 -5.22248e-10 2.22167 -0.733487 -0.20892 -5.42653e-15 2.46963e-14 -4.54087e-14 -20.332 12.8331 -0.196978 4.2852 -1.96027 -6.67878 -0.233994 -10.7663 1.41844 2.89746e-10 4.9551e-11 2.65111e-10 4.92757e-10 7.82076e-11 4.60175e-10 2.8974e-10 4.95536e-11 2.65128e-10 -7.73091 5.47488 -0.417314 2.89745e-10 4.95513e-11 2.65111e-10 -2.90554 0.965183 -0.102902 2.89733e-10 4.95515e-11 2.65115e-10 -10.2786 0.731801 -0.0259123 2.89746e-10 4.95493e-11 2.65108e-10 -2.22167 -0.733487 0.20892 -2.03217e-16 0.0 -3.88251e-19 0.0342081 -11.4737 3.34453 0.037784 8.28556 0.133753 -0.786413 -0.170595 -5.33655 2.03217e-16 0.0 3.88251e-19 -2.35214 -19.8934 -3.32951 0.0441948 22.2719 -0.393535 0.51144 -5.25745 0.599636
40.6581 79.0825 115.492 -179.603 -11.4965 -161.148 3.20379 -11.9228 3.16777 -3.36477 2.88528 0.493601 8.98251 6.8827 8.95839 -10.7426 1.95175 16.0091 -0.0 0.0 0.0 -0.0 0.0 0.0 -4.19867e-14 4.82003e-14 -9.62242e-14 43.2155 10.4456 -1.95267 -7.98639 -3.70589 13.2429 -0.00124174 -2.13176 -0.299584 2.10541e-10 2.95704e-10 -1.0683e-09 3.63877e-10 5.10354e-10 -1.84828e-09 2.10546e-10 2.95706e-10 -1.06832e-09 7.73091 5.47488 0.417314 2.10552e-10 2.95697e-10 -1.0683e-09 2.90554 0.965183 0.102902 2.10547e-10 2.95703e-10 -1.06831e-09 10.2786 0.731801 0.0259123 2.1054e-10 2.95703e-10 -1.0683e-09 2.22167 -0.733487 -0.20892 -4.20368e-14 4.82028e-14 -9.64323e-14 -41.7067 26.4117 -0.452648 8.32171 -3.94361 -13.7637 0.139879 -22.1182 3.09364 2.93529e-10 9.64915e-11 5.20291e-10 4.91876e-10 1.52127e-10 9.03206e-10 2.93527e-10 9.64911e-11 5.20311e-10 -7.73091 5.47488 -0.417314 2.93528e-10 9.64916e-11 5.20293e-10 -2.90554 0.965183 -0.102902 2.93518e-10 9.64917e-11 5.20297e-10 -10.2786 0.731801 -0.0259123 2.93531e-10 9.64902e-11 5.2029e-10 -2.22167 -0.733487 0.20892 -2.03217e-16 0.0 -3.88251e-19 3.61507 -21.4458 7.22579 0.00471845 19.255 0.359888 -2.10163 -4.49403 -11.1401 2.03217e-16 0.0 3.88251e-19 -3.43138 -30.4969 -7.89554 0.164954 33.1934 -0.572215 0.637434 -8.39119 1.25279
40.6553 79.1163 115.517 -179.489 -11.5167 -161.122 6.66225 -17.3581 4.76778 -4.50071 4.19629 0.788308 12.3348 9.85954 13.1374 -15.9859 2.77789 23.2945 -0.0 0.0 0.0 -0.0 0.0 0.0 -7.29613e-14 7.34259e-14 -1.36057e-13 63.2529 15.2303 -2.89583 -11.0774 -5.23755 19.3503 -0.00924847 -3.10504 -0.436709 1.79897e-10 4.66508e-10 -1.57001e-09 3.11089e-10 8.05298e-10 -2.71622e-09 1.79901e-10 4.66509e-10 -1.57003e-09 7.73091 5.47488 0.417314 1.79912e-10 4.66498e-10 -1.57001e-09 2.90554 0.965183 0.102902 1.79901e-10 4.66506e-10 -1.57001e-09 10.2786 0.731801 0.0259123 1.79894e-10 4.66507e-10 -1.57001e-09 2.22167 -0.733487 -0.20892 -7.30334e-14 7.34337e-14 -1.36226e-13 -60.669 38.4973 -0.736202 11.5102 -5.56186 -20.1234 1.14235 -32.2123 4.94265 3.08105e-10 1.42206e-10 7.92058e-10 5.0923e-10 2.23497e-10 1.37488e-09 3.08105e-10 1.42203e-10 7.92081e-10 -7.73091 5.47488 -0.417314 3.08104e-10 1.42206e-10 7.92063e-10 -2.90554 0.965183 -0.102902 3.08094e-10 1.42206e-10 7.92067e-10 -10.2786 0.731801 -0.0259123 3.08107e-10 1.42206e-10 7.9206e-10 -2.22167 -0.733487 0.20892 -2.03217e-16 0.0 -3.88251e-19 8.13541 -30.1195 11.3441 -0.108603 29.0129 0.599523 -4.01358 -8.17311 -16.415 2.03217e-16 0.0 3.88251e-19 -6.24038 -39.6725 -13.1174 0.35353 42.9212 -0.793044 0.809475 -11.2074 1.83831
40.6465 79.1567 115.55 -179.41 -11.5299 -161.067 9.29322 -21.1354 5.92158 -5.2607 5.08731 0.976426 14.2738 11.7096 15.9947 -19.646 3.48015 28.1418 -0.0 0.0 0.0 -0.0 0.0 0.0 -8.99105e-14 1.02965e-13 -1.47796e-13 77.2582 18.5848 -3.56591 -13.0249 -6.19392 23.6119 -0.0174613 -3.7698 -0.530584 1.63641e-10 7.19267e-10 -1.96086e-09 2.8311e-10 1.2422e-09 -3.39213e-09 1.63645e-10 7.19266e-10 -1.96087e-09 7.73091 5.47488 0.417314 1.63658e-10 7.19254e-10 -1.96085e-09 2.90554 0.965183 0.102902 1.63644e-10 7.19264e-10 -1.96086e-09 10.2786 0.731801 0.0259123 1.63637e-10 7.19265e-10 -1.96085e-09 2.22167 -0.733487 -0.20892 -8.99956e-14 1.02976e-13 -1.47945e-13 -73.8801 46.8531 -0.936633 13.5167 -6.57105 -24.5867 2.35228 -39.2425 6.59187 3.49659e-10 1.84857e-10 1.1053e-09 5.72171e-10 2.88495e-10 1.91815e-09 3.4966e-10 1.84853e-10 1.10532e-09 -7.73091 5.47488 -0.417314 3.49659e-10 1.84857e-10 1.1053e-09 -2.90554 0.965183 -0.102902 3.4965e-10 1.84857e-10 1.10531e-09 -10.2786 0.731801 -0.0259123 3.49663e-10 1.84857e-10 1.1053e-09 -2.22167 -0.733487 0.20892 -2.03217e-16 0.0 -3.88251e-19 12.2158 -35.9541 14.8053 -0.246993 35.7435 0.802886 -5.75126 -10.5934 -20.1634 2.03217e-16 0.0 3.88251e-19 -9.61813 -45.8697 -17.832 0.55446 49.6659 -1.00532 0.958854 -13.2345 2.23035
